<?xml version="1.0" encoding="UTF-8"?>
<svg version="1.1" xmlns="http://www.w3.org/2000/svg" width="512" height="512">
<path d="M0 0 C33.00281408 30.05842739 55.27028691 70.29377485 64.63183594 113.85009766 C64.82310059 114.73431396 65.01436523 115.61853027 65.21142578 116.52954102 C68.56218448 133.42789496 69.13601508 150.54982958 69.06933594 167.72509766 C69.06660172 169.19645676 69.06660172 169.19645676 69.06381226 170.69754028 C69.01557502 186.16597942 68.49290241 201.33629374 65.75683594 216.60009766 C65.59054687 217.53144531 65.42425781 218.46279297 65.25292969 219.42236328 C59.03420534 252.65799009 44.96441919 284.227031 23.75683594 310.60009766 C22.974375 311.58623047 22.19191406 312.57236328 21.38574219 313.58837891 C-13.63538106 356.83735641 -63.95513205 384.88993677 -119.24316406 391.60009766 C-119.98026611 391.69436035 -120.71736816 391.78862305 -121.47680664 391.88574219 C-129.11203172 392.76730592 -136.75177004 392.84342537 -144.43066406 392.85009766 C-145.13325348 392.8507724 -145.8358429 392.85144714 -146.5597229 392.85214233 C-201.29556774 392.76921746 -253.91346503 371.72850776 -293.24316406 333.60009766 C-294.08210205 332.79983154 -294.08210205 332.79983154 -294.93798828 331.98339844 C-327.07388863 301.26591024 -348.55347334 260.38932866 -356.24316406 216.60009766 C-356.46963623 215.31522461 -356.46963623 215.31522461 -356.70068359 214.00439453 C-366.99167073 151.88102451 -356.77433901 85.46139456 -320.10644531 33.57666016 C-285.46524541 -13.81399392 -235.3402355 -44.96266089 -177.24316406 -54.39990234 C-112.54141887 -64.27479417 -48.42532548 -43.19196388 0 0 Z " fill="#2ECB71" transform="translate(401.2431640625,98.39990234375)"/>
<path d="M0 0 C3.79968401 1.77027166 6.19097844 3.97512322 9.140625 6.98046875 C9.62650085 7.47154617 10.11237671 7.9626236 10.61297607 8.46858215 C12.16350303 10.03685648 13.70719156 11.61163482 15.25 13.1875 C23.99728393 22.10802609 23.99728393 22.10802609 33.24853516 30.49975586 C35.94426622 32.80882575 38.50696524 35.22335988 41.0625 37.6875 C41.80790039 38.37682617 41.80790039 38.37682617 42.56835938 39.08007812 C43.97265625 40.44921875 43.97265625 40.44921875 46 43 C45.75978962 46.89429099 43.55330051 48.8157394 40.88256836 51.47387695 C40.00753159 52.35191483 39.13249481 53.2299527 38.23094177 54.13459778 C37.2674687 55.08605478 36.30376336 56.03727663 35.33984375 56.98828125 C34.3509431 57.97412075 33.36263523 58.9605552 32.37489319 59.94755554 C30.30043149 62.01741395 28.22116073 64.08226904 26.13793945 66.14331055 C23.48752821 68.76562484 20.84569397 71.39636222 18.20705318 74.03051472 C15.67111348 76.5612529 13.13053443 79.08731444 10.58984375 81.61328125 C10.11439558 82.0868487 9.63894741 82.56041615 9.14909172 83.04833412 C7.77633096 84.41409236 6.39980895 85.77606678 5.02319336 87.13793945 C4.24455429 87.90975052 3.46591522 88.68156158 2.66368103 89.47676086 C0.61984791 91.41283341 -1.443828 93.24870792 -3.58018494 95.07720947 C-9.22810059 99.99016838 -14.45928175 105.32764587 -19.74023438 110.62670898 C-20.90374614 111.79050332 -22.06747913 112.95407652 -23.23141479 114.1174469 C-26.36944693 117.25519377 -29.50440031 120.39600004 -32.63878441 123.53739047 C-35.9227926 126.82767734 -39.20965928 130.11510624 -42.49621582 133.40284729 C-48.70992041 139.61965193 -54.92107287 145.83899983 -61.13129854 152.0592795 C-68.2055425 159.14472588 -75.28264811 166.22731104 -82.35998821 173.30966461 C-96.90983137 187.86994211 -111.4561009 202.43378528 -126 217 C-129.3367038 215.54721611 -131.52520252 213.72208531 -134.08758545 211.15292358 C-134.89242874 210.35082962 -135.69727203 209.54873566 -136.52650452 208.72233582 C-137.40044357 207.84120621 -138.27438263 206.9600766 -139.17480469 206.05224609 C-140.101978 205.12536484 -141.02915131 204.19848358 -141.98442078 203.24351501 C-144.52372458 200.70478483 -147.05681635 198.15993719 -149.58883953 195.61394835 C-152.23714437 192.95313773 -154.89111721 190.29799293 -157.54449463 187.64224243 C-162.56682332 182.61369853 -167.58403216 177.58007829 -172.59942269 172.54461539 C-178.31008784 166.81159255 -184.02643567 161.0842503 -189.74326849 155.35737872 C-201.50184813 143.57789614 -213.25326895 131.79129851 -225 120 C-223.6647512 117.23412115 -222.42812818 115.17907274 -220.2421875 113.01171875 C-219.42621094 112.19864258 -219.42621094 112.19864258 -218.59375 111.36914062 C-218.0265625 110.81419922 -217.459375 110.25925781 -216.875 109.6875 C-216.33101562 109.14416016 -215.78703125 108.60082031 -215.2265625 108.04101562 C-212.32459617 105.16956062 -209.35794469 102.42192134 -206.2578125 99.765625 C-200.9093248 95.13417739 -195.97728247 90.08499947 -191 85.0625 C-190.02497614 84.0824469 -189.0497172 83.1026276 -188.07421875 82.12304688 C-185.71383382 79.75097687 -183.35583095 77.3765914 -181 75 C-177.25815246 76.5597899 -174.89097222 78.86732173 -172.04785156 81.72509766 C-171.5693425 82.20331467 -171.09083344 82.68153168 -170.5978241 83.17424011 C-169.02396805 84.74948483 -167.45730707 86.33168535 -165.890625 87.9140625 C-164.79818714 89.01023213 -163.70530566 90.10595981 -162.61199951 91.20126343 C-159.74048758 94.08039888 -156.87503346 96.96549056 -154.01080322 99.85186768 C-151.08505874 102.79809815 -148.15361986 105.73865069 -145.22265625 108.6796875 C-139.47618518 114.44758588 -133.73610194 120.22178964 -128 126 C-124.15680042 124.41579204 -121.72875769 121.97517218 -118.8114624 119.05197144 C-118.04679511 118.28986742 -118.04679511 118.28986742 -117.26668 117.51236737 C-115.56069363 115.80967375 -113.86195128 114.09993321 -112.16308594 112.39013672 C-110.94126619 111.16775282 -109.71900585 109.94580917 -108.49633789 108.72427368 C-105.17813755 105.40664767 -101.86614413 102.0828869 -98.55521679 98.75800467 C-95.09411618 95.28441009 -91.6273592 91.81647027 -88.16119385 88.34793091 C-81.59827477 81.77879315 -75.04047104 75.20457332 -68.48448205 68.62852013 C-61.02051885 61.14221004 -53.55088266 53.66157135 -46.08076048 46.18140769 C-30.71417856 30.79391498 -15.35474801 15.39930086 0 0 Z " fill="#EAEFF0" transform="translate(340,171)"/>
<path d="M0 0 C0.33 0 0.66 0 1 0 C1.06469482 0.67240723 1.12938965 1.34481445 1.19604492 2.03759766 C6.86870415 59.40692905 30.18718096 114.4051477 75.44140625 151.90625 C78.89672576 154.69123559 82.43879047 157.3527116 86 160 C86.55768066 160.4237793 87.11536133 160.84755859 87.68994141 161.28417969 C114.78657868 181.85769886 146.55712305 194.52653405 180 200 C180.71285156 200.11859375 181.42570313 200.2371875 182.16015625 200.359375 C193.6044285 202.1562327 205.12986157 202.20312229 216.6875 202.25 C217.42445099 202.25535767 218.16140198 202.26071533 218.92068481 202.26623535 C232.8386388 202.34293857 246.44621155 201.22046619 260 197.875 C260.86898926 197.66182129 261.73797852 197.44864258 262.63330078 197.22900391 C318.43338959 183.06840598 366.96014247 149.39540215 396.671875 99.609375 C414.70215347 68.38916128 422.83957783 36.48595378 427 1 C427.33 1 427.66 1 428 1 C429.38689853 52.26387884 415.42866203 102.67276163 383 143 C381.82630859 144.47919922 381.82630859 144.47919922 380.62890625 145.98828125 C345.607783 189.23725875 295.28803201 217.28983912 240 224 C239.26289795 224.0942627 238.5257959 224.18852539 237.76635742 224.28564453 C230.13113234 225.16720827 222.49139403 225.24332772 214.8125 225.25 C214.10991058 225.25067474 213.40732117 225.25134949 212.68344116 225.25204468 C157.94759632 225.1691198 105.32969904 204.12841011 66 166 C65.16106201 165.19973389 65.16106201 165.19973389 64.30517578 164.38330078 C24.92933662 126.7454297 1.86222739 73.99581912 -0.12451172 19.59033203 C-0.23911948 13.05768949 -0.18302919 6.53085695 0 0 Z " fill="#26AE60" transform="translate(42,266)"/>
<path d="M0 0 C3.18086518 1.50946511 5.29869906 3.07941825 7.75 5.625 C8.36359375 6.25664062 8.9771875 6.88828125 9.609375 7.5390625 C10.06828125 8.02117187 10.5271875 8.50328125 11 9 C9.34614424 13.2677905 6.15109372 16.12400209 2.96688843 19.28034973 C2.34195704 19.90769553 1.71702565 20.53504134 1.07315695 21.18139762 C-1.02543346 23.28563069 -3.13110614 25.38262989 -5.23681641 27.47973633 C-6.74177593 28.98576864 -8.24630243 30.49223377 -9.75042725 31.99909973 C-13.84118109 36.09470742 -17.93816941 40.18402623 -22.03641558 44.27213502 C-26.32544196 48.55238204 -30.60919964 52.83789606 -34.89364624 57.12272644 C-42.09480051 64.32294352 -49.29982 71.51927435 -56.50732422 78.71313477 C-64.83115498 87.02126629 -73.14977447 95.33458599 -81.46539176 103.65093786 C-90.32344052 112.50966337 -99.18529908 121.36457023 -108.0482707 130.2183702 C-110.59774392 132.76571585 -113.1465092 135.31376801 -115.69511795 137.86197853 C-119.70969365 141.87554602 -123.72682344 145.8865402 -127.74590302 149.89559746 C-129.21728037 151.36406558 -130.68782639 152.83336725 -132.15745926 154.30358124 C-145.60977948 167.75920612 -145.60977948 167.75920612 -151.53061485 172.75379467 C-153.63386057 174.53758569 -155.5682889 176.47129406 -157.5 178.4375 C-158.1703125 179.11683594 -158.840625 179.79617188 -159.53125 180.49609375 C-160.0159375 180.99238281 -160.500625 181.48867188 -161 182 C-164.3367038 180.54721611 -166.52520252 178.72208531 -169.08758545 176.15292358 C-169.89242874 175.35082962 -170.69727203 174.54873566 -171.52650452 173.72233582 C-172.40044357 172.84120621 -173.27438263 171.9600766 -174.17480469 171.05224609 C-175.101978 170.12536484 -176.02915131 169.19848358 -176.98442078 168.24351501 C-179.52372458 165.70478483 -182.05681635 163.15993719 -184.58883953 160.61394835 C-187.23714437 157.95313773 -189.89111721 155.29799293 -192.54449463 152.64224243 C-197.56682332 147.61369853 -202.58403216 142.58007829 -207.59942269 137.54461539 C-213.31008784 131.81159255 -219.02643567 126.0842503 -224.74326849 120.35737872 C-236.50184813 108.57789614 -248.25326895 96.79129851 -260 85 C-259.06409496 83.8944811 -258.12620142 82.79064547 -257.1875 81.6875 C-256.40439453 80.76517578 -256.40439453 80.76517578 -255.60546875 79.82421875 C-254.81076172 78.92123047 -254.81076172 78.92123047 -254 78 C-253.52175781 77.40832031 -253.04351562 76.81664062 -252.55078125 76.20703125 C-251 75 -251 75 -249.04187393 75.10567379 C-246.60649166 76.17235385 -245.20662716 77.4241814 -243.33001709 79.30921936 C-242.61772949 80.01738297 -241.90544189 80.72554657 -241.17156982 81.45516968 C-240.40048889 82.23703644 -239.62940796 83.0189032 -238.83496094 83.82446289 C-238.0150769 84.64390884 -237.19519287 85.4633548 -236.35046387 86.30763245 C-233.63793118 89.0222578 -230.9361834 91.74736047 -228.234375 94.47265625 C-226.35744177 96.35518371 -224.47992922 98.23711473 -222.60162354 100.11827087 C-218.16163839 104.56758015 -213.72935592 109.02448142 -209.29978585 113.48415703 C-204.25613872 118.56133667 -199.20397001 123.63 -194.15106535 128.69796383 C-183.75786547 139.12252107 -173.37541419 149.55774007 -163 160 C-159.21192139 158.42873541 -156.8187024 156.06269266 -153.94122314 153.17500305 C-153.44525658 152.68003977 -152.94929002 152.1850765 -152.43829417 151.67511433 C-150.77861779 150.01639005 -149.12619332 148.35062602 -147.47363281 146.68481445 C-146.2845051 145.49348525 -145.09492879 144.30260368 -143.90493774 143.11213684 C-141.34292744 140.5471926 -138.784107 137.97912224 -136.22769928 135.40859413 C-132.18084228 131.33945904 -128.12689849 127.27743439 -124.07196045 123.21635437 C-117.65336872 116.78637651 -111.23946357 110.35174701 -104.82758212 103.91507834 C-93.36116811 92.40440201 -81.88927601 80.89919218 -70.41204715 69.39929932 C-66.38739893 65.36627233 -62.36557771 61.33045367 -58.34604692 57.29232657 C-55.83646948 54.77205115 -53.32481751 52.25385055 -50.81266403 49.73614311 C-49.6540748 48.57410429 -48.49635704 47.41119577 -47.33961105 46.24732208 C-41.93225929 40.80740806 -36.53409367 35.40954092 -30.67524338 30.44828224 C-27.58993363 27.78096871 -24.74491001 24.86754297 -21.875 21.97265625 C-21.24263428 21.33887558 -20.61026855 20.70509491 -19.95874023 20.05210876 C-17.97010014 18.05794022 -15.98499473 16.06029647 -14 14.0625 C-12.63955682 12.69703255 -11.27888169 11.33179614 -9.91796875 9.96679688 C-6.6092969 6.64719114 -3.30378678 3.32446727 0 0 Z " fill="#28AE61" transform="translate(375,227)"/>
</svg>
