<?xml version="1.0" encoding="UTF-8"?>
<svg version="1.1" xmlns="http://www.w3.org/2000/svg" width="512" height="512">
<path d="M0 0 C33.00281408 30.05842739 55.27028691 70.29377485 64.63183594 113.85009766 C64.82310059 114.73431396 65.01436523 115.61853027 65.21142578 116.52954102 C68.56218448 133.42789496 69.13601508 150.54982958 69.06933594 167.72509766 C69.06660172 169.19645676 69.06660172 169.19645676 69.06381226 170.69754028 C69.01557502 186.16597942 68.49290241 201.33629374 65.75683594 216.60009766 C65.59054687 217.53144531 65.42425781 218.46279297 65.25292969 219.42236328 C59.03420534 252.65799009 44.96441919 284.227031 23.75683594 310.60009766 C22.974375 311.58623047 22.19191406 312.57236328 21.38574219 313.58837891 C-13.63538106 356.83735641 -63.95513205 384.88993677 -119.24316406 391.60009766 C-119.98026611 391.69436035 -120.71736816 391.78862305 -121.47680664 391.88574219 C-129.11203172 392.76730592 -136.75177004 392.84342537 -144.43066406 392.85009766 C-145.13325348 392.8507724 -145.8358429 392.85144714 -146.5597229 392.85214233 C-201.29556774 392.76921746 -253.91346503 371.72850776 -293.24316406 333.60009766 C-294.08210205 332.79983154 -294.08210205 332.79983154 -294.93798828 331.98339844 C-327.07388863 301.26591024 -348.55347334 260.38932866 -356.24316406 216.60009766 C-356.46963623 215.31522461 -356.46963623 215.31522461 -356.70068359 214.00439453 C-366.99167073 151.88102451 -356.77433901 85.46139456 -320.10644531 33.57666016 C-285.46524541 -13.81399392 -235.3402355 -44.96266089 -177.24316406 -54.39990234 C-112.54141887 -64.27479417 -48.42532548 -43.19196388 0 0 Z " fill="#E64C3C" transform="translate(401.2431640625,98.39990234375)"/>
<path d="M0 0 C2.27111624 0.91537531 3.45435961 1.89246866 5.16366482 3.63692665 C5.75934261 4.23715141 6.35502041 4.83737617 6.96874905 5.45578957 C7.61041515 6.11766777 8.25208126 6.77954597 8.9131918 7.46148109 C9.59824795 8.15573692 10.2833041 8.84999275 10.98911953 9.56528664 C12.47594307 11.07357289 13.95939237 12.58519106 15.43986225 14.09971428 C17.78162709 16.49357293 20.13381373 18.87670731 22.48937893 21.2569828 C29.18496297 28.02600987 35.86362298 34.81155242 42.52891445 41.61040688 C46.60569891 45.76738957 50.69685291 49.90976769 54.7973032 54.04340172 C56.35913912 55.62390311 57.91525388 57.21007884 59.46555805 58.80189323 C61.62999167 61.02376677 63.81209097 63.22673152 65.9991293 65.42632484 C66.63877117 66.09225151 67.27841305 66.75817818 67.93743801 67.44428444 C71.20098679 70.80352566 71.20098679 70.80352566 75.52085781 72.1292057 C79.34922536 70.11594796 82.05389195 67.26012828 85.04258633 64.16753578 C85.7293948 63.47327995 86.41620327 62.77902412 87.12382412 62.06373024 C88.6123727 60.55662428 90.09631354 59.04495655 91.57615757 57.5293026 C93.91607299 55.13374921 96.26863556 52.75131244 98.6250906 50.37203407 C104.47300629 44.46261389 110.30086856 38.53356703 116.12473965 32.60045815 C121.04898326 27.58431334 125.98276935 22.5779861 130.93111897 17.58561516 C133.25438558 15.23357679 135.56258579 12.8673862 137.87084866 10.50063515 C139.28930121 9.06722259 140.70848643 7.63453455 142.12852383 6.20269203 C142.77018993 5.53676537 143.41185604 4.8708387 144.07296658 4.18473244 C144.66864437 3.59014732 145.26432217 2.99556221 145.8780508 2.38295937 C146.64814653 1.59815728 146.64814653 1.59815728 147.43379974 0.79750061 C149.02085781 -0.18549156 149.02085781 -0.18549156 151.03399467 -0.00802231 C154.45232693 1.40711461 156.77737342 4.20904087 159.31773281 6.81841469 C159.91136623 7.41629295 160.50499966 8.01417122 161.11662197 8.63016701 C163.00852976 10.53884945 164.8897328 12.45770384 166.77085781 14.37700844 C168.05271783 15.6739168 169.33526211 16.97014922 170.61851406 18.26568031 C173.76061853 21.44083801 176.8931632 24.6251579 180.02085781 27.81450844 C178.49482367 31.03080985 176.9228501 33.10220143 174.33335781 35.56450844 C171.75225956 38.02663823 169.36544413 40.56235556 167.05674648 43.2764225 C162.78948255 48.16871085 158.21247345 52.73681634 153.60529995 57.30523109 C152.04612055 58.85143583 150.4902716 60.4009274 148.93516445 61.95122719 C145.07519978 65.79795069 141.20975879 69.6391556 137.34446621 73.48052406 C134.06636339 76.7387654 130.79040789 79.99913834 127.51716518 83.26226234 C125.99776316 84.77526896 124.47534078 86.28518814 122.95274258 87.79497719 C118.84427991 91.87924663 114.76202549 95.99010872 110.83726406 100.25200844 C110.28627041 100.84884438 109.73527676 101.44568031 109.16758633 102.06060219 C107.65603746 104.02324428 107.65603746 104.02324428 108.02085781 107.81450844 C109.12821734 109.51013312 109.12821734 109.51013312 110.75425625 111.02892494 C111.36007534 111.64024269 111.96589443 112.25156044 112.59007168 112.88140297 C113.26332485 113.54027504 113.93657803 114.19914711 114.63023281 114.877985 C115.33248989 115.58082619 116.03474697 116.28366737 116.75828457 117.00780678 C119.08645489 119.33318599 121.42848263 121.6440707 123.77085781 123.95513344 C125.3859847 125.56280166 127.00023186 127.17135413 128.61363125 128.780756 C132.86609863 133.01793789 137.13044071 137.24297213 141.39732265 141.46563148 C145.74778597 145.77520547 150.08697277 150.0961 154.42710781 154.41607094 C162.94732695 162.89336768 171.48012714 171.35788062 180.02085781 179.81450844 C178.22216875 183.68548471 175.74659339 186.39502527 172.75132656 189.38482094 C172.23330975 189.90712288 171.71529293 190.42942482 171.18157864 190.96755409 C170.08717961 192.06768198 168.99016934 193.16521761 167.89073086 194.26030922 C166.21576754 195.93211269 164.55456516 197.61679252 162.89390469 199.30278969 C161.82635696 200.37261065 160.75802301 201.44164774 159.68882656 202.50982094 C159.19593639 203.01192085 158.70304623 203.51402077 158.19521999 204.03133583 C155.11075911 207.07523543 153.2223922 208.13389468 149.02085781 209.81450844 C124.93085781 185.72450844 100.84085781 161.63450844 76.02085781 136.81450844 C72.7695819 138.4401464 71.26568054 139.32059059 68.84440517 141.75045204 C68.24150158 142.35060631 67.63859798 142.95076057 67.01742458 143.56910133 C66.36790325 144.22581322 65.71838192 144.8825251 65.04917812 145.55913734 C64.35609051 146.25193291 63.66300289 146.94472847 62.94891262 147.65851784 C60.66082982 149.94799318 58.3799113 152.24446974 56.09898281 154.54107094 C54.51329861 156.13048553 52.92717207 157.71945892 51.34062099 159.30800819 C47.16707927 163.48918429 42.99957864 167.6763319 38.83329678 171.86474037 C34.58043062 176.13806907 30.32189362 180.40573817 26.06382656 184.67388344 C17.71060222 193.04855425 9.36374733 201.42954287 1.02085781 209.81450844 C-11.00835837 204.0307799 -20.71253154 191.18601802 -29.97914219 181.81450844 C-28.6723052 178.931202 -27.28192082 176.86886736 -25.04319859 174.6380558 C-24.44304432 174.03515221 -23.84289005 173.43224861 -23.22454929 172.81107521 C-22.56783741 172.16155388 -21.91112553 171.51203255 -21.23451328 170.84282875 C-20.54171772 170.14974113 -19.84892216 169.45665352 -19.13513279 168.74256325 C-16.84565745 166.45448044 -14.54918089 164.17356193 -12.25257969 161.89263344 C-10.6631651 160.30694924 -9.07419171 158.7208227 -7.48564243 157.13427162 C-3.30446633 152.9607299 0.88268127 148.79322927 5.07108974 144.6269474 C9.34441844 140.37408125 13.61208754 136.11554425 17.88023281 131.85747719 C26.25490362 123.50425285 34.63589224 115.15739796 43.02085781 106.81450844 C41.6438159 103.96473153 40.29420078 101.80619848 38.1187582 99.49834633 C37.52010448 98.86094017 36.92145077 98.22353401 36.30465603 97.56681252 C35.64510418 96.87640373 34.98555233 96.18599495 34.30601406 95.47466469 C33.60613873 94.73684258 32.90626339 93.99902046 32.18517971 93.2388401 C22.46650007 83.05666866 12.44577645 73.16917754 2.45835781 63.25200844 C-0.50240547 60.31182535 -3.46243639 57.37092458 -6.41858006 54.42609596 C-8.23932488 52.61277432 -10.06230846 50.80169663 -11.88797092 48.99332619 C-16.28171794 44.6170919 -20.5257418 40.18141013 -24.55249119 35.46381569 C-26.26746396 33.48118853 -28.08848912 31.62953539 -29.97914219 29.81450844 C-28.33417479 25.66325218 -25.32185464 22.81643486 -22.23695469 19.70122719 C-21.67217411 19.12741814 -21.10739353 18.55360909 -20.52549839 17.96241188 C-19.33293196 16.75537221 -18.13756365 15.5510952 -16.93959141 14.34942055 C-15.1051897 12.50306278 -13.29026579 10.63887194 -11.47523594 8.77349281 C-10.31362774 7.6024269 -9.15090462 6.43246563 -7.98695469 5.26372719 C-7.44515568 4.70239586 -6.90335667 4.14106453 -6.3451395 3.56272316 C-2.50242414 -0.23453523 -2.50242414 -0.23453523 0 0 Z " fill="#EBEEEF" transform="translate(180.97914218902588,150.18549156188965)"/>
<path d="M0 0 C0.33 0 0.66 0 1 0 C1.06469482 0.67764404 1.12938965 1.35528809 1.19604492 2.0534668 C6.8227109 59.3392051 30.290419 114.49069861 75.44140625 151.90625 C78.89672576 154.69123559 82.43879047 157.3527116 86 160 C86.55768066 160.4237793 87.11536133 160.84755859 87.68994141 161.28417969 C109.98609265 178.21285945 136.13436411 190.17643442 163.3125 196.625 C164.52873047 196.9240625 165.74496094 197.223125 166.99804688 197.53125 C181.31747853 200.96852196 194.96444059 202.33065498 209.6394043 202.26074219 C212.2982485 202.25005727 214.95641101 202.26067947 217.61523438 202.2734375 C231.96114095 202.28623944 246.09223661 201.36095809 260.0625 197.875 C260.92697754 197.66182129 261.79145508 197.44864258 262.68212891 197.22900391 C301.14153911 187.42024125 334.33656783 169.34419471 363 142 C363.85207031 141.20078125 364.70414062 140.4015625 365.58203125 139.578125 C372.47475306 132.93506083 378.2698841 125.63738736 384 118 C384.42812988 117.43796875 384.85625977 116.8759375 385.29736328 116.296875 C410.99472216 82.44240913 422.79016255 42.78381633 427 1 C427.33 1 427.66 1 428 1 C429.38689853 52.26387884 415.42866203 102.67276163 383 143 C381.82630859 144.47919922 381.82630859 144.47919922 380.62890625 145.98828125 C345.607783 189.23725875 295.28803201 217.28983912 240 224 C239.26289795 224.0942627 238.5257959 224.18852539 237.76635742 224.28564453 C230.13113234 225.16720827 222.49139403 225.24332772 214.8125 225.25 C214.10991058 225.25067474 213.40732117 225.25134949 212.68344116 225.25204468 C157.94759632 225.1691198 105.32969904 204.12841011 66 166 C65.16106201 165.19973389 65.16106201 165.19973389 64.30517578 164.38330078 C24.92933662 126.7454297 1.86222739 73.99581912 -0.12451172 19.59033203 C-0.23911948 13.05768949 -0.18302919 6.53085695 0 0 Z " fill="#C0392B" transform="translate(42,266)"/>
<path d="M0 0 C2.88330643 1.30683699 4.94564108 2.69722137 7.17645264 4.9359436 C7.77935623 5.53609787 8.38225983 6.13625214 9.00343323 6.7545929 C9.65295456 7.41130478 10.30247589 8.06801666 10.97167969 8.74462891 C11.6647673 9.43742447 12.35785492 10.13022003 13.07194519 10.8440094 C15.36002799 13.13348474 17.64094651 15.4299613 19.921875 17.7265625 C21.5075592 19.31597709 23.09368574 20.90495048 24.68023682 22.49349976 C28.85377854 26.67467585 33.02127917 30.86182346 37.18756104 35.05023193 C41.44042719 39.32356063 45.69896419 43.59122973 49.95703125 47.859375 C58.31025559 56.23404581 66.65711048 64.61503443 75 73 C78.67653684 71.60920179 81.01500195 70.34982408 83.76953125 67.5234375 C84.43017578 66.853125 85.09082031 66.1828125 85.77148438 65.4921875 C86.44501953 64.79351562 87.11855469 64.09484375 87.8125 63.375 C88.50537109 62.66859375 89.19824219 61.9621875 89.91210938 61.234375 C91.61506879 59.49618194 93.31061192 57.75136939 95 56 C98.18086518 57.50946511 100.29869906 59.07941825 102.75 61.625 C103.67039062 62.57246094 103.67039062 62.57246094 104.609375 63.5390625 C105.06828125 64.02117187 105.5271875 64.50328125 106 65 C104.34763349 69.29067546 101.1094793 72.1429553 97.8984375 75.296875 C97.30197418 75.89050842 96.70551086 76.48414185 96.0909729 77.09576416 C94.1903019 78.98526627 92.28278526 80.86768392 90.375 82.75 C89.08287532 84.03209065 87.79120324 85.31463761 86.5 86.59765625 C83.33855521 89.73708432 80.1709539 92.87017801 77 96 C70.99385691 91.06658986 65.52862743 85.6470815 60.05941963 80.13458443 C58.40825459 78.4704951 56.75384557 76.80969042 55.09861755 75.14964294 C50.98979004 71.02754281 46.88644703 66.89999728 42.78295898 62.77258301 C39.30688095 59.2766567 35.82868138 55.78286662 32.34773064 52.29179192 C30.73058472 50.66823992 29.11651973 49.04166925 27.50257874 47.41493225 C22.67890977 42.5675264 17.82376692 37.81221838 12.60752869 33.38143921 C10.28862891 31.38867908 8.1442198 29.24022324 6 27.0625 C5.236875 26.29035156 4.47375 25.51820313 3.6875 24.72265625 C3.130625 24.15417969 2.57375 23.58570313 2 23 C-1.13879381 24.3875818 -3.22254795 25.99523408 -5.609375 28.44921875 C-6.28226562 29.13306641 -6.95515625 29.81691406 -7.6484375 30.52148438 C-8.34195313 31.23626953 -9.03546875 31.95105469 -9.75 32.6875 C-11.11719069 34.08978019 -12.4869772 35.4895343 -13.859375 36.88671875 C-14.46233398 37.50764404 -15.06529297 38.12856934 -15.68652344 38.76831055 C-17.59695583 40.61120444 -19.5394253 42.332984 -21.55371094 44.05810547 C-27.0517731 48.83784321 -32.14650161 54.02202982 -37.28125 59.18359375 C-38.34576772 60.24998085 -39.41050962 61.31614419 -40.47546387 62.38209534 C-43.25263833 65.16305407 -46.02679425 67.94700444 -48.80029297 70.73162842 C-51.64105638 73.5826948 -54.48471872 76.43086669 -57.328125 79.27929688 C-62.8882283 84.85006518 -68.44514018 90.42400319 -74 96 C-78.4266071 92.28984473 -82.64214876 88.47851707 -86.71484375 84.3828125 C-87.21544815 83.88079315 -87.71605255 83.3787738 -88.23182678 82.86154175 C-89.80278598 81.28506329 -91.37019877 79.70511427 -92.9375 78.125 C-94.01343727 77.04403726 -95.08960731 75.96330617 -96.16601562 74.8828125 C-98.78003292 72.25787359 -101.39088596 69.62981372 -104 67 C-102.49053489 63.81913482 -100.92058175 61.70130094 -98.375 59.25 C-97.42753906 58.32960938 -97.42753906 58.32960938 -96.4609375 57.390625 C-95.73777344 56.70226562 -95.73777344 56.70226562 -95 56 C-91.03967155 57.58413138 -88.45394922 60.35230206 -85.5625 63.375 C-82.21985991 66.84281524 -78.83171133 70.06536809 -75 73 C-72.11669357 71.69316301 -70.05435892 70.30277863 -67.82354736 68.0640564 C-67.22064377 67.46390213 -66.61774017 66.86374786 -65.99656677 66.2454071 C-65.34704544 65.58869522 -64.69752411 64.93198334 -64.02832031 64.25537109 C-63.3352327 63.56257553 -62.64214508 62.86977997 -61.92805481 62.1559906 C-59.63997201 59.86651526 -57.35905349 57.5700387 -55.078125 55.2734375 C-53.4924408 53.68402291 -51.90631426 52.09504952 -50.31976318 50.50650024 C-46.14622146 46.32532415 -41.97872083 42.13817654 -37.81243896 37.94976807 C-33.55957281 33.67643937 -29.30103581 29.40877027 -25.04296875 25.140625 C-16.68974441 16.76595419 -8.34288952 8.38496557 0 0 Z " fill="#C03A2C" transform="translate(255,286)"/>
<path d="M0 0 C3.33022734 1.2768712 5.81232255 2.36435661 8.375 4.875 C9.16003906 5.61363281 9.16003906 5.61363281 9.9609375 6.3671875 C11 8 11 8 10.82901001 9.81768799 C9.70911974 12.76572234 8.01729111 14.33475346 5.77490234 16.54980469 C4.87661713 17.44463562 3.97833191 18.33946655 3.05282593 19.26141357 C2.06393801 20.23164372 1.07497323 21.20179553 0.0859375 22.171875 C-0.92792324 23.17759101 -1.94104492 24.18405256 -2.95346069 25.19122314 C-5.62408664 27.84472649 -8.30313514 30.48955304 -10.98449707 33.13220215 C-15.25636431 37.3449454 -19.51586626 41.57017565 -23.77442551 45.79636383 C-25.25321408 47.26136091 -26.73585268 48.72236692 -28.21914673 50.18280029 C-32.85457685 54.76891137 -37.36038394 59.38943006 -41.58628845 64.35772705 C-43.59140774 66.68702341 -45.74835431 68.84453348 -47.9375 71 C-48.70964844 71.763125 -49.48179687 72.52625 -50.27734375 73.3125 C-50.84582031 73.869375 -51.41429687 74.42625 -52 75 C-55.21524305 73.59155282 -57.32183868 71.89655214 -59.75 69.375 C-60.67039062 68.42753906 -60.67039062 68.42753906 -61.609375 67.4609375 C-62.06828125 66.97882813 -62.5271875 66.49671875 -63 66 C-61.73794013 63.26594807 -60.42242152 61.14764717 -58.36499023 58.953125 C-57.81867447 58.36837402 -57.2723587 57.78362305 -56.70948792 57.18115234 C-56.10281784 56.54387207 -55.49614777 55.9065918 -54.87109375 55.25 C-54.22128036 54.56244629 -53.57146698 53.87489258 -52.90196228 53.16650391 C-43.33910488 43.11942777 -33.47458149 33.36347568 -23.6461792 23.57751465 C-20.96859651 20.91035458 -18.29401528 18.24018794 -15.61914062 15.5703125 C-10.41560664 10.37734868 -5.20889227 5.18758969 0 0 Z " fill="#C03A2C" transform="translate(350,191)"/>
<path d="M0 0 C3.80923106 1.57655085 6.22178935 3.97425424 9.11645508 6.87353516 C9.86124367 7.61547623 9.86124367 7.61547623 10.62107849 8.37240601 C12.25882011 10.00644841 13.88925513 11.64757434 15.51953125 13.2890625 C16.66253238 14.43325695 17.80590475 15.57708065 18.94963074 16.72055054 C21.34754349 19.12002715 23.74206233 21.52282297 26.1340332 23.92822266 C29.18174167 26.99283416 32.23590353 30.05090957 35.29245472 33.10669899 C37.65638676 35.47090483 40.0176889 37.83772292 42.37814903 40.20539474 C43.50215673 41.33255934 44.62674881 42.45914154 45.75196266 43.58510208 C61.85551586 59.71103172 61.85551586 59.71103172 65 66 C62.03 68.97 59.06 71.94 56 75 C52.8235386 73.4117693 51.35415092 72.60470778 49.01171875 70.2421875 C48.46966797 69.69820313 47.92761719 69.15421875 47.36914062 68.59375 C46.53672852 67.74296875 46.53672852 67.74296875 45.6875 66.875 C45.14416016 66.33101563 44.60082031 65.78703125 44.04101562 65.2265625 C41.21030611 62.3657746 38.50210006 59.4434061 35.89379883 56.37841797 C31.60932742 51.46487329 26.97582272 46.9414095 22.3125 42.390625 C20.46165432 40.56700006 18.61141092 38.74276368 16.76171875 36.91796875 C13.86675747 34.06499947 10.9677421 31.21640075 8.05712891 28.37939453 C5.23301103 25.62580385 2.42883949 22.85236602 -0.375 20.078125 C-1.25502686 19.22704163 -2.13505371 18.37595825 -3.04174805 17.49908447 C-3.84008057 16.7043573 -4.63841309 15.90963013 -5.4609375 15.09082031 C-6.17040527 14.3954718 -6.87987305 13.70012329 -7.61083984 12.98370361 C-9 11 -9 11 -8.83666992 8.86444092 C-7.69141186 6.3123401 -6.08449512 5.02212296 -3.9375 3.25 C-3.20402344 2.63640625 -2.47054687 2.0228125 -1.71484375 1.390625 C-1.14894531 0.93171875 -0.58304688 0.4728125 0 0 Z " fill="#C03A2C" transform="translate(160,191)"/>
</svg>
