<?xml version="1.0" encoding="UTF-8"?>
<svg version="1.1" xmlns="http://www.w3.org/2000/svg" width="512" height="512">
<path d="M0 0 C33.00281408 30.05842739 55.27028691 70.29377485 64.63183594 113.85009766 C64.82310059 114.73431396 65.01436523 115.61853027 65.21142578 116.52954102 C68.56218448 133.42789496 69.13601508 150.54982958 69.06933594 167.72509766 C69.06660172 169.19645676 69.06660172 169.19645676 69.06381226 170.69754028 C69.01557502 186.16597942 68.49290241 201.33629374 65.75683594 216.60009766 C65.59054687 217.53144531 65.42425781 218.46279297 65.25292969 219.42236328 C59.03420534 252.65799009 44.96441919 284.227031 23.75683594 310.60009766 C22.974375 311.58623047 22.19191406 312.57236328 21.38574219 313.58837891 C-13.63538106 356.83735641 -63.95513205 384.88993677 -119.24316406 391.60009766 C-119.98026611 391.69436035 -120.71736816 391.78862305 -121.47680664 391.88574219 C-129.11203172 392.76730592 -136.75177004 392.84342537 -144.43066406 392.85009766 C-145.13325348 392.8507724 -145.8358429 392.85144714 -146.5597229 392.85214233 C-201.29556774 392.76921746 -253.91346503 371.72850776 -293.24316406 333.60009766 C-294.08210205 332.79983154 -294.08210205 332.79983154 -294.93798828 331.98339844 C-327.07388863 301.26591024 -348.55347334 260.38932866 -356.24316406 216.60009766 C-356.46963623 215.31522461 -356.46963623 215.31522461 -356.70068359 214.00439453 C-366.99167073 151.88102451 -356.77433901 85.46139456 -320.10644531 33.57666016 C-285.46524541 -13.81399392 -235.3402355 -44.96266089 -177.24316406 -54.39990234 C-112.54141887 -64.27479417 -48.42532548 -43.19196388 0 0 Z " fill="#3498DA" transform="translate(401.2431640625,98.39990234375)"/>
<path d="M0 0 C21.12 0 42.24 0 64 0 C64 49.5 64 99 64 150 C78.19 150 92.38 150 107 150 C107 156.93 107 163.86 107 171 C64.76 171 22.52 171 -21 171 C-21 164.07 -21 157.14 -21 150 C-6.81 150 7.38 150 22 150 C22 107.76 22 65.52 22 22 C7.81 22 -6.38 22 -21 22 C-14.4023177 14.30270398 -7.16860439 7.16860439 0 0 Z " fill="#EBEFF0" transform="translate(213,213)"/>
<path d="M0 0 C0.33 0 0.66 0 1 0 C1.06469482 0.67764404 1.12938965 1.35528809 1.19604492 2.0534668 C6.8227109 59.3392051 30.290419 114.49069861 75.44140625 151.90625 C78.89672576 154.69123559 82.43879047 157.3527116 86 160 C86.55768066 160.4237793 87.11536133 160.84755859 87.68994141 161.28417969 C113.28498818 180.71759425 142.78846032 192.29813565 174 199 C174.85287598 199.1851416 175.70575195 199.3702832 176.58447266 199.56103516 C189.05861864 202.13596177 201.56386881 202.27962761 214.25 202.3125 C215.05134369 202.31626648 215.85268738 202.32003296 216.67831421 202.32391357 C231.31046205 202.35876764 245.81343285 201.43052716 260.0625 197.875 C260.92697754 197.66182129 261.79145508 197.44864258 262.68212891 197.22900391 C318.46418785 183.00223927 366.95377294 149.40607516 396.671875 99.609375 C407.61851793 80.67174576 415.17904639 61.06261245 421 40 C421.19319824 39.30213379 421.38639648 38.60426758 421.58544922 37.88525391 C424.78398833 25.90641136 425.64903978 13.29330365 427 1 C427.33 1 427.66 1 428 1 C429.38689853 52.26387884 415.42866203 102.67276163 383 143 C381.82630859 144.47919922 381.82630859 144.47919922 380.62890625 145.98828125 C345.607783 189.23725875 295.28803201 217.28983912 240 224 C239.26289795 224.0942627 238.5257959 224.18852539 237.76635742 224.28564453 C230.13113234 225.16720827 222.49139403 225.24332772 214.8125 225.25 C214.10991058 225.25067474 213.40732117 225.25134949 212.68344116 225.25204468 C157.94759632 225.1691198 105.32969904 204.12841011 66 166 C65.16106201 165.19973389 65.16106201 165.19973389 64.30517578 164.38330078 C24.92933662 126.7454297 1.86222739 73.99581912 -0.12451172 19.59033203 C-0.23911948 13.05768949 -0.18302919 6.53085695 0 0 Z " fill="#2880B9" transform="translate(42,266)"/>
<path d="M0 0 C42.24 0 84.48 0 128 0 C128 6.93 128 13.86 128 21 C85.76 21 43.52 21 0 21 C0 14.07 0 7.14 0 0 Z " fill="#2980B9" transform="translate(192,384)"/>
<path d="M0 0 C13.86 0 27.72 0 42 0 C42 13.86 42 27.72 42 42 C28.14 42 14.28 42 0 42 C0 28.14 0 14.28 0 0 Z " fill="#ECF0F1" transform="translate(235,128)"/>
<path d="M0 0 C13.86 0 27.72 0 42 0 C42 6.93 42 13.86 42 21 C28.14 21 14.28 21 0 21 C0 14.07 0 7.14 0 0 Z " fill="#2980B9" transform="translate(235,171)"/>
<path d="M0 0 C0 6.93 0 13.86 0 21 C-13.53 21 -27.06 21 -41 21 C-39.02 18.69 -37.04 16.38 -35 14 C-34.02349623 12.75634092 -33.05173239 11.50890337 -32.08984375 10.25390625 C-22.30810789 -1.56218105 -15.05427441 -1.3685704 0 0 Z " fill="#2980B9" transform="translate(234,235)"/>
</svg>
