<?xml version="1.0" encoding="UTF-8"?>
<svg version="1.1" xmlns="http://www.w3.org/2000/svg" width="512" height="512">
<path d="M0 0 C1.3462328 1.3388776 2.67390644 2.69634257 4.00024414 4.05493164 C4.64219727 4.67625977 5.28415039 5.29758789 5.94555664 5.93774414 C11.66045434 11.86528919 15.4433144 19.28121288 19.48266602 26.3894043 C21.75129612 30.37410563 24.04817163 34.34239351 26.34179688 38.31274414 C28.27871176 41.66672647 30.21171818 45.02294355 32.14477539 48.37915039 C35.71878905 54.57667069 39.32445623 60.75525388 42.93774414 66.92993164 C48.35960656 76.1998402 53.70229419 85.51325073 59.01947021 94.84338379 C64.22069543 103.96776004 69.48052292 113.05625938 74.78369141 122.12182617 C80.93791156 132.64577789 87.0239441 143.20873302 93.10913086 153.77270508 C96.23704562 159.20153106 99.36882862 164.62812445 102.50024414 170.05493164 C103.75026293 172.22158747 105.00026292 174.38825414 106.25024414 176.55493164 C106.86899414 177.62743164 107.48774414 178.69993164 108.12524414 179.80493164 C158.75024414 267.55493164 158.75024414 267.55493164 160.62646484 270.80712891 C161.87230184 272.96652559 163.11823232 275.12586833 164.36425781 277.28515625 C167.55373367 282.81260761 170.74141299 288.34108285 173.92602539 293.87133789 C174.57128174 294.99113037 175.21653809 296.11092285 175.88134766 297.26464844 C177.15769722 299.48031125 178.43294536 301.69660894 179.70703125 303.91357422 C182.41376437 308.61489347 185.13242026 313.30388092 187.95336914 317.93774414 C200.87360409 339.19187132 207.49889122 362.1313493 201.50024414 387.05493164 C197.58893234 399.3259838 191.69904513 410.52004958 183.00024414 420.05493164 C182.48333008 420.66336914 181.96641602 421.27180664 181.43383789 421.89868164 C167.62464062 437.12686911 146.89018758 443.75784578 127.00024414 445.05493164 C122.0417713 445.19311781 117.08483606 445.19463096 112.12484741 445.18864441 C110.64254086 445.19051596 109.16023481 445.19281803 107.67792952 445.19550973 C103.63103053 445.20159164 99.58415231 445.20149842 95.5372498 445.20031536 C91.16215911 445.20011043 86.78707493 445.20563887 82.4119873 445.21037292 C73.84988429 445.21866037 65.28778816 445.22142691 56.72568147 445.2219853 C49.76146228 445.2224614 42.79724536 445.22452082 35.83302689 445.22768593 C16.06262141 445.23648755 -3.70777864 445.24110611 -23.47818609 445.24035545 C-24.54281876 445.2403155 -25.60745143 445.24027554 -26.7043457 445.24023438 C-27.77028723 445.24019349 -28.83622875 445.24015261 -29.93447153 445.24011049 C-47.20085567 445.23970424 -64.46721798 445.24926998 -81.7335958 445.26337274 C-99.48765251 445.27775871 -117.24169859 445.28464169 -134.99576128 445.28377897 C-144.95319375 445.28344775 -154.91060334 445.28616176 -164.86803055 445.29695702 C-173.34736467 445.30609131 -181.82666553 445.30821333 -190.30600245 445.30144759 C-194.62607667 445.29819703 -198.9460872 445.29807232 -203.26615524 445.30680084 C-207.23271774 445.31473216 -211.19916675 445.31316774 -215.16572671 445.30451671 C-216.58897546 445.30299616 -218.01223296 445.30474224 -219.43547137 445.31037679 C-227.01808811 445.33837091 -234.48477776 445.02772383 -242.01614952 444.18010426 C-243.04924142 444.06697352 -243.04924142 444.06697352 -244.10320387 443.95155732 C-259.67455973 442.02705904 -273.34239921 434.2275303 -284.99975586 424.05493164 C-285.61463867 423.53543945 -286.22952148 423.01594727 -286.86303711 422.48071289 C-300.18690229 410.32077157 -308.4983049 391.230655 -309.32006836 373.45336914 C-310.12065011 344.51937552 -298.20777064 324.82679455 -283.98754883 300.46606445 C-280.80609216 295.00655665 -277.65402627 289.53017518 -274.49975586 284.05493164 C-273.25118943 281.89079328 -272.00249126 279.72673091 -270.75366211 277.56274414 C-268.2390615 273.20427776 -265.72620925 268.84480973 -263.21459961 264.48461914 C-257.19228257 254.03286965 -251.15306249 243.59193616 -245.06225586 233.17993164 C-239.98700463 224.50230923 -234.97716819 215.78887596 -229.99975586 207.05493164 C-224.45973856 197.33377547 -218.86600777 187.64598506 -213.21630859 177.98803711 C-207.06208844 167.46408539 -200.9760559 156.90113027 -194.89086914 146.3371582 C-191.76295438 140.90833222 -188.63117138 135.48173883 -185.49975586 130.05493164 C-184.24973707 127.88827581 -182.99973708 125.72160914 -181.74975586 123.55493164 C-174.24975586 110.55493164 -166.74975586 97.55493164 -159.24975586 84.55493164 C-158.63092529 83.48227051 -158.01209473 82.40960938 -157.37451172 81.30444336 C-156.12540068 79.13936093 -154.87621457 76.97432182 -153.62695312 74.80932617 C-150.48773277 69.36877458 -147.34985023 63.92745948 -144.21459961 58.48461914 C-141.10227132 53.08180673 -137.98320604 47.68291685 -134.86254883 42.28491211 C-132.9650689 38.99478636 -131.07777439 35.6989551 -129.19116211 32.40258789 C-127.96094029 30.26572696 -126.73048061 28.12900295 -125.49975586 25.99243164 C-124.94860107 25.02354004 -124.39744629 24.05464844 -123.82958984 23.05639648 C-111.94142403 2.49395905 -95.05220032 -12.00055955 -72.14038086 -18.79272461 C-69.75915361 -19.30461263 -67.41789282 -19.66058166 -64.99975586 -19.94506836 C-64.20182617 -20.07655273 -63.40389648 -20.20803711 -62.58178711 -20.34350586 C-40.2427592 -23.38512842 -16.17730203 -15.58740855 0 0 Z " fill="#FED663" transform="translate(308.999755859375,43.945068359375)"/>
<path d="M0 0 C1.3462328 1.3388776 2.67390644 2.69634257 4.00024414 4.05493164 C4.64219727 4.67625977 5.28415039 5.29758789 5.94555664 5.93774414 C11.66045434 11.86528919 15.4433144 19.28121288 19.48266602 26.3894043 C21.75129612 30.37410563 24.04817163 34.34239351 26.34179688 38.31274414 C28.27871176 41.66672647 30.21171818 45.02294355 32.14477539 48.37915039 C35.71878905 54.57667069 39.32445623 60.75525388 42.93774414 66.92993164 C48.35960656 76.1998402 53.70229419 85.51325073 59.01947021 94.84338379 C64.22069543 103.96776004 69.48052292 113.05625938 74.78369141 122.12182617 C80.93791156 132.64577789 87.0239441 143.20873302 93.10913086 153.77270508 C96.23704562 159.20153106 99.36882862 164.62812445 102.50024414 170.05493164 C103.75026293 172.22158747 105.00026292 174.38825414 106.25024414 176.55493164 C106.86899414 177.62743164 107.48774414 178.69993164 108.12524414 179.80493164 C158.75024414 267.55493164 158.75024414 267.55493164 160.62646484 270.80712891 C161.87230184 272.96652559 163.11823232 275.12586833 164.36425781 277.28515625 C167.55373367 282.81260761 170.74141299 288.34108285 173.92602539 293.87133789 C174.57128174 294.99113037 175.21653809 296.11092285 175.88134766 297.26464844 C177.15769722 299.48031125 178.43294536 301.69660894 179.70703125 303.91357422 C182.41376437 308.61489347 185.13242026 313.30388092 187.95336914 317.93774414 C200.87360409 339.19187132 207.49889122 362.1313493 201.50024414 387.05493164 C197.58893234 399.3259838 191.69904513 410.52004958 183.00024414 420.05493164 C182.48333008 420.66336914 181.96641602 421.27180664 181.43383789 421.89868164 C167.62464062 437.12686911 146.89018758 443.75784578 127.00024414 445.05493164 C122.0417713 445.19311781 117.08483606 445.19463096 112.12484741 445.18864441 C110.64254086 445.19051596 109.16023481 445.19281803 107.67792952 445.19550973 C103.63103053 445.20159164 99.58415231 445.20149842 95.5372498 445.20031536 C91.16215911 445.20011043 86.78707493 445.20563887 82.4119873 445.21037292 C73.84988429 445.21866037 65.28778816 445.22142691 56.72568147 445.2219853 C49.76146228 445.2224614 42.79724536 445.22452082 35.83302689 445.22768593 C16.06262141 445.23648755 -3.70777864 445.24110611 -23.47818609 445.24035545 C-24.54281876 445.2403155 -25.60745143 445.24027554 -26.7043457 445.24023438 C-27.77028723 445.24019349 -28.83622875 445.24015261 -29.93447153 445.24011049 C-47.20085567 445.23970424 -64.46721798 445.24926998 -81.7335958 445.26337274 C-99.48765251 445.27775871 -117.24169859 445.28464169 -134.99576128 445.28377897 C-144.95319375 445.28344775 -154.91060334 445.28616176 -164.86803055 445.29695702 C-173.34736467 445.30609131 -181.82666553 445.30821333 -190.30600245 445.30144759 C-194.62607667 445.29819703 -198.9460872 445.29807232 -203.26615524 445.30680084 C-207.23271774 445.31473216 -211.19916675 445.31316774 -215.16572671 445.30451671 C-216.58897546 445.30299616 -218.01223296 445.30474224 -219.43547137 445.31037679 C-227.01808811 445.33837091 -234.48477776 445.02772383 -242.01614952 444.18010426 C-243.04924142 444.06697352 -243.04924142 444.06697352 -244.10320387 443.95155732 C-259.67455973 442.02705904 -273.34239921 434.2275303 -284.99975586 424.05493164 C-285.61463867 423.53543945 -286.22952148 423.01594727 -286.86303711 422.48071289 C-300.18690229 410.32077157 -308.4983049 391.230655 -309.32006836 373.45336914 C-310.12065011 344.51937552 -298.20777064 324.82679455 -283.98754883 300.46606445 C-280.80609216 295.00655665 -277.65402627 289.53017518 -274.49975586 284.05493164 C-273.25118943 281.89079328 -272.00249126 279.72673091 -270.75366211 277.56274414 C-268.2390615 273.20427776 -265.72620925 268.84480973 -263.21459961 264.48461914 C-257.19228257 254.03286965 -251.15306249 243.59193616 -245.06225586 233.17993164 C-239.98700463 224.50230923 -234.97716819 215.78887596 -229.99975586 207.05493164 C-224.45973856 197.33377547 -218.86600777 187.64598506 -213.21630859 177.98803711 C-207.06208844 167.46408539 -200.9760559 156.90113027 -194.89086914 146.3371582 C-191.76295438 140.90833222 -188.63117138 135.48173883 -185.49975586 130.05493164 C-184.24973707 127.88827581 -182.99973708 125.72160914 -181.74975586 123.55493164 C-174.24975586 110.55493164 -166.74975586 97.55493164 -159.24975586 84.55493164 C-158.63092529 83.48227051 -158.01209473 82.40960938 -157.37451172 81.30444336 C-156.12540068 79.13936093 -154.87621457 76.97432182 -153.62695312 74.80932617 C-150.48773277 69.36877458 -147.34985023 63.92745948 -144.21459961 58.48461914 C-141.10227132 53.08180673 -137.98320604 47.68291685 -134.86254883 42.28491211 C-132.9650689 38.99478636 -131.07777439 35.6989551 -129.19116211 32.40258789 C-127.96094029 30.26572696 -126.73048061 28.12900295 -125.49975586 25.99243164 C-124.94860107 25.02354004 -124.39744629 24.05464844 -123.82958984 23.05639648 C-111.94142403 2.49395905 -95.05220032 -12.00055955 -72.14038086 -18.79272461 C-69.75915361 -19.30461263 -67.41789282 -19.66058166 -64.99975586 -19.94506836 C-64.20182617 -20.07655273 -63.40389648 -20.20803711 -62.58178711 -20.34350586 C-40.2427592 -23.38512842 -16.17730203 -15.58740855 0 0 Z M-88.99975586 27.05493164 C-91.49743947 30.49126957 -93.62312165 34.09578698 -95.71508789 37.79077148 C-97.22857487 40.45821318 -98.76800506 43.1099403 -100.30834961 45.76196289 C-103.2202222 50.78326006 -106.11744422 55.81278534 -109.00769043 60.84655762 C-112.49596923 66.92125926 -115.99764728 72.98819635 -119.49975586 79.05493164 C-120.74981698 81.22156305 -121.99981686 83.38822978 -123.24975586 85.55493164 C-134.49975586 105.05493164 -134.49975586 105.05493164 -145.74975586 124.55493164 C-146.36858643 125.62759277 -146.98741699 126.70025391 -147.625 127.80541992 C-148.87411104 129.97050235 -150.12329715 132.13554146 -151.37255859 134.30053711 C-154.51177895 139.7410887 -157.64966149 145.1824038 -160.78491211 150.62524414 C-166.80722915 161.07699364 -172.84644923 171.51792712 -178.93725586 181.92993164 C-184.01250709 190.60755405 -189.02234352 199.32098732 -193.99975586 208.05493164 C-199.53977316 217.77608781 -205.13350395 227.46387822 -210.78320312 237.12182617 C-216.93742327 247.64577789 -223.02345582 258.20873302 -229.10864258 268.77270508 C-231.61313403 273.11951415 -234.12015651 277.46486036 -236.62744141 281.81005859 C-237.87520661 283.97253705 -239.12276536 286.13513464 -240.37011719 288.29785156 C-243.51697178 293.75384975 -246.66624659 299.20842622 -249.82006836 304.66040039 C-252.94473197 310.06292339 -256.06034407 315.47058647 -259.17114258 320.88110352 C-260.39587069 323.00679983 -261.62409583 325.13048494 -262.85571289 327.25219727 C-264.64090701 330.32772722 -266.41505163 333.40940303 -268.18725586 336.49243164 C-268.71593262 337.39695068 -269.24460937 338.30146973 -269.78930664 339.23339844 C-277.56022518 352.82808914 -280.3300725 364.86357316 -276.43725586 380.36743164 C-272.30986098 393.30579005 -263.33963292 402.04986997 -251.99975586 409.05493164 C-245.13673239 412.4495454 -238.01736322 413.17781546 -230.44595242 413.18635941 C-228.52038782 413.19212112 -228.52038782 413.19212112 -226.55592293 413.19799924 C-225.14376281 413.19721913 -223.73160275 413.19634038 -222.31944275 413.19537354 C-220.80957656 413.19795934 -219.29971105 413.2009731 -217.78984648 413.20437694 C-213.64830948 413.21242492 -209.50678983 413.21423528 -205.36524594 413.2149744 C-200.89538875 413.21682881 -196.42554048 413.22437811 -191.95568848 413.23110962 C-182.18481467 413.24467804 -172.41394497 413.2507154 -162.64306331 413.25512028 C-156.53869398 413.25788534 -150.43432622 413.26212319 -144.32995796 413.26662445 C-127.41918379 413.2788154 -110.50841088 413.28911491 -93.59763241 413.29249954 C-92.51578679 413.29271911 -91.43394118 413.29293867 -90.31931237 413.29316489 C-88.6927232 413.29349231 -88.6927232 413.29349231 -87.03327364 413.29382634 C-84.83598451 413.2942698 -82.63869538 413.29471637 -80.44140625 413.29516602 C-79.35148149 413.29538745 -78.26155672 413.29560888 -77.13860393 413.29583701 C-59.48517077 413.29978349 -41.83177892 413.31723372 -24.17836171 413.34052554 C-6.04137182 413.36426164 12.09559735 413.37670243 30.23260301 413.37786746 C40.41078374 413.37878297 50.58891063 413.38450409 60.76707649 413.40268707 C69.43544765 413.41811859 78.10374833 413.42319056 86.77213062 413.41494897 C91.19107323 413.4110532 95.60987406 413.41191936 100.02879906 413.42600632 C104.08237783 413.43880986 108.13570921 413.43749163 112.18928795 413.42541561 C113.6475978 413.42346971 115.10592556 413.4264852 116.5642103 413.43525997 C130.3247782 413.51274824 142.59444297 412.20505393 154.00024414 404.05493164 C154.88711914 403.47743164 155.77399414 402.89993164 156.68774414 402.30493164 C165.24278134 393.98111167 171.49926163 382.0493153 172.16821289 370.03930664 C172.1746582 368.97196289 172.18110352 367.90461914 172.18774414 366.80493164 C172.20192383 365.74790039 172.21610352 364.69086914 172.23071289 363.60180664 C171.74658128 356.15110321 169.87263977 349.98655583 166.25024414 343.49243164 C165.86175293 342.77756592 165.47326172 342.0627002 165.07299805 341.32617188 C160.46471105 332.9302882 155.59180232 324.68169266 150.73852539 316.42602539 C146.9790345 310.03026411 143.26567625 303.60856607 139.56274414 297.17993164 C138.94061035 296.10042236 138.31847656 295.02091309 137.67749023 293.90869141 C136.41526581 291.71828414 135.15322177 289.52777292 133.89135742 287.3371582 C130.76344266 281.90833222 127.63165966 276.48173883 124.50024414 271.05493164 C123.25022535 268.88827581 122.00022536 266.72160914 120.75024414 264.55493164 C120.13149414 263.48243164 119.51274414 262.40993164 118.87524414 261.30493164 C23.25024414 95.55493165 23.25024414 95.55493165 21.37402344 92.30273438 C20.12818644 90.14333769 18.88225596 87.98399495 17.63623047 85.82470703 C14.44675461 80.29725567 11.25907529 74.76878043 8.07446289 69.23852539 C4.94549026 63.80512518 1.80872325 58.37627754 -1.33081055 52.94897461 C-2.85673816 50.3029322 -4.37136001 47.65080357 -5.88256836 44.99633789 C-14.82729395 29.37017081 -23.49574176 17.81701801 -41.27319336 11.92993164 C-59.21531518 7.71710639 -76.73985697 13.37425943 -88.99975586 27.05493164 Z " fill="#3B4145" transform="translate(308.999755859375,43.945068359375)"/>
<path d="M0 0 C0 10.23 0 20.46 0 31 C0.66 31.33 1.32 31.66 2 32 C1.07960938 32.06316406 0.15921875 32.12632813 -0.7890625 32.19140625 C-13.75708578 33.44595025 -26.26493751 37.71548075 -35 48 C-37.46509478 51.44445524 -39.60168147 55.04182829 -41.69921875 58.71972656 C-43.22332353 61.39148682 -44.76776924 64.05104998 -46.3125 66.7109375 C-49.22262747 71.73118799 -52.11857618 76.75942121 -55.00794983 81.79164124 C-58.4962082 87.86634659 -61.9978949 93.93327075 -65.5 100 C-66.75006112 102.16663141 -68.000061 104.33329814 -69.25 106.5 C-80.5 126 -80.5 126 -91.75 145.5 C-92.36883057 146.57266113 -92.98766113 147.64532227 -93.62524414 148.75048828 C-94.87435518 150.91557071 -96.12354129 153.08060982 -97.37280273 155.24560547 C-100.51202309 160.68615706 -103.64990563 166.12747216 -106.78515625 171.5703125 C-112.80747329 182.02206199 -118.84669337 192.46299548 -124.9375 202.875 C-130.01275123 211.55262241 -135.02258767 220.26605568 -140 229 C-145.5400173 238.72115617 -151.13374809 248.40894658 -156.78344727 258.06689453 C-162.93766742 268.59084625 -169.02369996 279.15380137 -175.10888672 289.71777344 C-177.61337817 294.06458251 -180.12040065 298.40992872 -182.62768555 302.75512695 C-183.87545075 304.91760541 -185.1230095 307.080203 -186.37036133 309.24291992 C-189.51721592 314.69891811 -192.66649074 320.15349458 -195.8203125 325.60546875 C-198.94497611 331.00799175 -202.06058821 336.41565483 -205.17138672 341.82617188 C-206.39611483 343.95186819 -207.62433997 346.0755533 -208.85595703 348.19726562 C-210.64115115 351.27279558 -212.41529577 354.35447139 -214.1875 357.4375 C-214.71617676 358.34201904 -215.24485352 359.24653809 -215.78955078 360.1784668 C-223.56046932 373.7731575 -226.33031664 385.80864152 -222.4375 401.3125 C-220.65555482 406.96600953 -218.13776696 411.36194573 -214.48828125 416.01171875 C-213 418 -213 418 -212 421 C-210.21107772 422.03603542 -210.21107772 422.03603542 -208 423 C-205.26399006 424.75236891 -202.55728159 426.54501844 -199.8515625 428.34375 C-192.46429873 432.63443471 -184.55943692 433.1464248 -176.17286682 433.15821838 C-175.03683491 433.16562535 -175.03683491 433.16562535 -173.87785286 433.17318195 C-171.35680306 433.18845945 -168.83577853 433.19689093 -166.31469727 433.20532227 C-164.50087769 433.21490847 -162.68706032 433.22491898 -160.87324524 433.23532104 C-155.9606074 433.26229576 -151.04796003 433.28334546 -146.13528943 433.30332303 C-140.99698997 433.32522856 -135.85871965 433.35259486 -130.72044373 433.37937927 C-120.99546819 433.4292445 -111.27047642 433.47420617 -101.54546922 433.51740164 C-90.47173775 433.56682681 -79.39803552 433.62172533 -68.32433236 433.67708123 C-45.54958201 433.79080653 -22.77480327 433.89747194 0 434 C0 444.56 0 455.12 0 466 C-23.17547474 466.04642011 -46.35093818 466.08205161 -69.52645016 466.10362434 C-80.28872708 466.11390991 -91.05097446 466.12791789 -101.81323242 466.15087891 C-111.20034305 466.17089642 -120.58743228 466.18373617 -129.97456366 466.18817699 C-134.93884372 466.19077028 -139.90306259 466.19680814 -144.86732292 466.21146011 C-149.55320762 466.22517657 -154.23900673 466.22919466 -158.92490959 466.22621536 C-160.63192207 466.22675931 -162.33893784 466.23065208 -164.04593277 466.23841095 C-172.48263527 466.27483215 -180.80278445 466.07716468 -189.19239807 465.12643433 C-190.20956749 465.0131898 -190.20956749 465.0131898 -191.24728578 464.89765751 C-206.7542498 462.93478699 -220.38811869 455.13291536 -232 445 C-232.61488281 444.48050781 -233.22976562 443.96101563 -233.86328125 443.42578125 C-247.18714643 431.26583993 -255.49854904 412.17572336 -256.3203125 394.3984375 C-257.12089425 365.46444388 -245.20801478 345.77186291 -230.98779297 321.41113281 C-227.8063363 315.95162501 -224.65427041 310.47524354 -221.5 305 C-220.25143357 302.83586163 -219.0027354 300.67179927 -217.75390625 298.5078125 C-215.23930564 294.14934612 -212.72645339 289.78987809 -210.21484375 285.4296875 C-204.19252671 274.97793801 -198.15330663 264.53700452 -192.0625 254.125 C-186.98724877 245.44737759 -181.97741233 236.73394432 -177 228 C-171.4599827 218.27884383 -165.86625191 208.59105342 -160.21655273 198.93310547 C-154.06233258 188.40915375 -147.97630004 177.84619863 -141.89111328 167.28222656 C-138.76319852 161.85340058 -135.63141552 156.42680719 -132.5 151 C-131.24998121 148.83334417 -129.99998122 146.6666775 -128.75 144.5 C-121.25 131.5 -113.75 118.5 -106.25 105.5 C-105.63116943 104.42733887 -105.01233887 103.35467773 -104.37475586 102.24951172 C-103.12564482 100.08442929 -101.87645871 97.91939018 -100.62719727 95.75439453 C-97.48797691 90.31384294 -94.35009437 84.87252784 -91.21484375 79.4296875 C-88.10251546 74.02687509 -84.98345018 68.62798521 -81.86279297 63.22998047 C-79.96531304 59.93985472 -78.07801853 56.64402346 -76.19140625 53.34765625 C-74.96118443 51.21079532 -73.73072475 49.07407131 -72.5 46.9375 C-71.94884521 45.9686084 -71.39769043 44.9997168 -70.82983398 44.00146484 C-58.94166817 23.43902741 -42.05244446 8.94450881 -19.140625 2.15234375 C-12.95943174 0.82358405 -6.32734878 0 0 0 Z " fill="#525A61" transform="translate(256,23)"/>
<path d="M0 0 C6.66412151 4.40797078 10.63425416 9.68110783 12.99609375 17.3203125 C13.56147206 22.1039631 13.53423293 26.86787386 13.49780273 31.67749023 C13.50159228 33.1108554 13.50709753 34.54421688 13.51417542 35.97756958 C13.528066 39.84757699 13.51700516 43.7171366 13.5004642 47.58711886 C13.48654444 51.65167454 13.49308173 55.71620603 13.49659729 59.78077698 C13.49929427 66.60563309 13.48586908 73.43031283 13.46264648 80.25512695 C13.43605061 88.12536009 13.43428817 95.99529828 13.44603485 103.86556095 C13.45684657 111.46082262 13.45059833 119.05597846 13.43647957 126.65123177 C13.43074804 129.87227976 13.43078002 133.09324958 13.43554497 136.31429863 C13.44034777 140.11394705 13.43007781 143.91327613 13.40859032 147.71286392 C13.40306654 149.10029715 13.40251616 150.48776134 13.40754318 151.87519646 C13.44175595 162.67967149 12.88417352 172.49549906 5.06640625 180.55859375 C-1.45609686 186.1088747 -7.71299646 188.09318349 -16.25 187.66796875 C-23.81852115 186.71251005 -28.81141299 182.59503981 -34.00390625 177.3203125 C-40.03838677 169.47548783 -39.30712119 159.47274088 -39.31030273 150.07666016 C-39.317935 148.64344354 -39.32636432 147.21023098 -39.33552551 145.77702332 C-39.35736842 141.90297415 -39.36625523 138.02900385 -39.37135196 134.15490007 C-39.37500675 131.72989894 -39.38125249 129.30491812 -39.38835335 126.87992477 C-39.41280948 118.40691987 -39.42589205 109.93397589 -39.42944336 101.4609375 C-39.43307873 93.58325969 -39.46298392 85.70597143 -39.50484794 77.82841265 C-39.53961457 71.04682138 -39.55499287 64.2653589 -39.55568939 57.48367918 C-39.55647985 53.44125319 -39.56511152 49.3992249 -39.59368706 45.35689163 C-39.61997873 41.55305438 -39.62201206 37.74994158 -39.60603142 33.94605446 C-39.60422586 32.55698241 -39.61082644 31.16786759 -39.62685013 29.7788868 C-39.73499545 19.78881997 -38.34073931 12.37004963 -31.72265625 4.6640625 C-30.99046875 4.055625 -30.25828125 3.4471875 -29.50390625 2.8203125 C-28.77171875 2.19125 -28.03953125 1.5621875 -27.28515625 0.9140625 C-19.37732118 -4.6105894 -8.42998529 -4.4238088 0 0 Z " fill="#535B60" transform="translate(269.00390625,135.6796875)"/>
<path d="M0 0 C8.46595568 1.14199042 15.14444255 7.46535329 20.3125 13.9375 C26.0032381 21.98756547 30.58527571 30.73531856 35.328125 39.36328125 C38.76745252 45.61321266 42.32621977 51.78566677 45.9375 57.9375 C47.10432483 59.92829272 48.27099023 61.9191789 49.4375 63.91015625 C50.02144531 64.9067627 50.60539062 65.90336914 51.20703125 66.93017578 C54.30437038 72.2332725 57.37113858 77.55394935 60.4375 82.875 C61.06003662 83.95515381 61.68257324 85.03530762 62.32397461 86.14819336 C63.58576826 88.33796334 64.84740534 90.52782355 66.10888672 92.71777344 C69.23680148 98.14659942 72.36858448 103.57319281 75.5 109 C76.75001879 111.16665583 78.00001878 113.3333225 79.25 115.5 C79.86875 116.5725 80.4875 117.645 81.125 118.75 C101.75 154.5 101.75 154.5 103.62524414 157.75048828 C104.87435518 159.91557071 106.12354129 162.08060982 107.37280273 164.24560547 C110.51202309 169.68615706 113.64990563 175.12747216 116.78515625 180.5703125 C122.80747329 191.02206199 128.84669337 201.46299548 134.9375 211.875 C140.35958699 221.14563931 145.70324012 230.45936699 151.02023315 239.79046631 C155.63484029 247.88707843 160.29084886 255.95788801 165 264 C170.40010185 273.22209175 175.72404776 282.48576727 181.00942993 291.77389526 C184.61701475 298.11342051 188.24473464 304.43897239 191.94921875 310.72265625 C192.57892578 311.79193359 193.20863281 312.86121094 193.85742188 313.96289062 C195.0322701 315.95273495 196.21157819 317.93995662 197.39648438 319.92382812 C207.37085896 336.82116644 207.37085896 336.82116644 208 345 C208.07863281 345.98097656 208.15726563 346.96195312 208.23828125 347.97265625 C208.56339676 361.50772812 204.55246792 373.62847359 195.5 383.8125 C194.675 384.534375 193.85 385.25625 193 386 C192.05125 386.845625 191.1025 387.69125 190.125 388.5625 C175.59371317 399.89690373 158.56618904 398.40346371 141 398 C141 397.67 141 397.34 141 397 C141.7734375 396.85304688 142.546875 396.70609375 143.34375 396.5546875 C150.58223924 394.99590393 155.53348397 392.99283666 161 388 C162.299375 386.88625 162.299375 386.88625 163.625 385.75 C174.23182526 373.46841286 177.02506302 360.73316426 176 345 C174.79634012 334.71017588 169.74427086 325.18462006 165.13061523 316.05004883 C164.66002182 315.11017624 164.18942841 314.17030365 163.70457458 313.20195007 C162.15959888 310.11844707 160.60904937 307.03778191 159.05859375 303.95703125 C157.96923807 301.78460504 156.88030213 299.61196832 155.79176331 297.43913269 C152.92738322 291.72363994 150.05856454 286.01038808 147.18841553 280.29779053 C142.62015478 271.20442442 138.05713352 262.10843406 133.49699593 253.01099205 C131.92230355 249.87162506 130.34479432 246.73368646 128.76695251 243.59590149 C124.11916018 234.33903906 119.52799046 225.0627762 115.09057617 215.703125 C101.11807263 186.28175608 86.32866163 157.2389942 71.79463005 128.09263134 C65.71265472 115.89532764 59.64137762 103.6928216 53.58376873 91.48339766 C49.2965421 82.84456003 44.99703611 74.21190218 40.68852055 65.58366281 C38.12551495 60.45011947 35.56795165 55.31403481 33.02376938 50.17113304 C30.63598473 45.34495599 28.23301981 40.52664353 25.81847763 35.71380043 C24.93939331 33.955031 24.06571727 32.19354547 23.19809723 30.42909241 C17.403087 18.65436814 11.68887108 7.89343679 0 1 C0 0.67 0 0.34 0 0 Z " fill="#FDB651" transform="translate(273,59)"/>
<path d="M0 0 C9.25537957 0.64950032 14.36967236 3.84881096 20.421875 10.70703125 C25.62082137 18.26094591 25.43080667 25.19452544 25.38818359 34.13012695 C25.39225326 35.56319579 25.39759735 36.99626149 25.40411377 38.42932129 C25.41775003 42.30763247 25.4125031 46.18570329 25.40297651 50.06401849 C25.39535631 54.13392783 25.40243247 58.20381723 25.40713501 62.27372742 C25.41258757 69.11050083 25.40541605 75.94717692 25.39111328 82.78393555 C25.3748073 90.66888701 25.3800623 98.55360548 25.3965925 106.43855125 C25.41024509 113.22437533 25.41210806 120.0101296 25.40427649 126.79596299 C25.39961812 130.84163264 25.39892383 134.88719313 25.40888596 138.93285561 C25.41760775 142.7406684 25.41143957 146.54818371 25.39420319 150.35596466 C25.39026513 151.74662726 25.39132594 153.13731526 25.39799118 154.52796745 C25.44603045 165.57722312 24.81710749 175.07846408 16.890625 183.3046875 C12.86348166 186.91580363 9.63185889 188.89638991 4.0625 189.25 C3.051875 189.1675 2.04125 189.085 1 189 C1.14118854 188.32181937 1.28237707 187.64363874 1.42784405 186.94490719 C3.0818919 178.20738405 3.29079206 169.64530444 3.2746582 160.78930664 C3.27901526 159.19288395 3.28420169 157.59646335 3.29014587 156.00004578 C3.30343888 151.69834388 3.30412555 147.39673036 3.30158257 143.09501195 C3.30050645 139.48941683 3.30541243 135.88383913 3.310188 132.27824777 C3.32124919 123.76564454 3.32173944 115.25308544 3.31567383 106.74047852 C3.30963366 97.98924247 3.32195396 89.23816719 3.3432439 80.48695856 C3.36091378 72.94346572 3.36685287 65.40002381 3.36360615 57.85651106 C3.36180206 53.36424245 3.36434172 48.8720886 3.37832069 44.37983894 C3.39098291 40.15338047 3.38887645 35.92717109 3.37590981 31.70071602 C3.3735628 30.15972302 3.37621046 28.61871202 3.38453293 27.07773972 C3.43154301 17.68838992 2.57155783 9.07334528 0 0 Z " fill="#3D4245" transform="translate(257,133)"/>
<path d="M0 0 C5.98615239 5.55471798 7.56272462 10.52725114 7.875 18.6875 C7.6328734 26.53708828 6.13289548 32.62304549 0.375 38.18359375 C-5.75157998 43.02219953 -12.07932675 45.73102039 -20.04296875 45.13671875 C-27.36795388 44.01241871 -33.64686165 41.15139663 -38.32421875 35.24609375 C-43.22843172 27.61575667 -43.47826 20.17446553 -42.6875 11.3125 C-40.63890695 4.78088719 -36.28297202 0.11173504 -30.6875 -3.6875 C-20.50617626 -8.90232436 -8.8335992 -6.90183547 0 0 Z " fill="#535A60" transform="translate(273.6875,360.6875)"/>
<path d="M0 0 C7.28588009 0.03373093 11.78438312 1.89801312 17 7 C22.7096664 13.70141987 23.5341999 19.5243356 23.3359375 28.125 C22.7761049 34.58260394 20.74226124 39.35172755 16.0625 43.87109375 C10.58842188 48.19437136 6.07398617 50.32902261 -1 50 C-0.690625 49.175 -0.38125 48.35 -0.0625 47.5 C2.08543055 40.42446407 2.19290666 33.27636023 2.1875 25.9375 C2.18814453 25.02589111 2.18878906 24.11428223 2.18945312 23.17504883 C2.12881586 15.31632181 1.33205433 7.74256581 0 0 Z " fill="#3C4245" transform="translate(258,355)"/>
</svg>
